<svg xmlns="http://www.w3.org/2000/svg" viewBox="0 0 197 211.86"><defs><style>.cls-1{fill:#403172;}.cls-1,.cls-4,.cls-5{stroke:#1d1d1b;stroke-miterlimit:10;}.cls-2{fill:#ef476f;}.cls-3{fill:#1d1d1b;}.cls-4{fill:#aec8ea;}.cls-4,.cls-5{stroke-width:6px;}.cls-5{fill:none;}.cls-6{fill:#e6332a;}.cls-7{fill:#ffd166;}.cls-8{fill:#1f244a;}</style></defs><title>recurso1</title><g id="Capa_2" data-name="Capa 2"><g id="Capa_1-2" data-name="Capa 1"><rect class="cls-1" x="67.35" y="38.57" width="66.71" height="30.71"/><path class="cls-2" d="M100.54,211.64c-4.16-.51-7.2-1.42-11.31-2.25-3-.59-3.45-2.61-6.12-4-18.67-9.72-37.79-21.21-54-34.67-2.34-1.95-6.65-1.91-8.28-4.47s-3.83-4.19-6-6.41c-5.4-5.48-.76-12.51.5-18s7.59-14.42,8.16-20.06c.71-6.94,5.14-27,7-29.2C72.53,44.15,116,50.77,134.05,65c8.09,6.37,21.92,37.17,30.31,43.13,3.35,2.39,8.62,10.39,11.24,13.57,5.34,6.48,6.19,15,10.89,22,1.34,2,2.71,4.16,2.62,6.55-.09,2.73-3.06,5-5.29,6.58s-2.06,6.54-4.21,8.22c-4.43,3.47-8.37,5.22-12.29,9.26-3.35,3.44-7.87,7.94-12.13,10.14-9.58,4.93-14,9.19-24.64,15.31-7.91,4.55-18,7.43-26.85,9.61-2,.49-4.51,3.1-4.42,1.05"/><path class="cls-2" d="M174.79,123.75c10.85-13.71,17.28-26.59,19.09-44s-.68-35.07-6-51.71a97.94,97.94,0,0,0-68.66,30.2L121.35,56"/><path class="cls-3" d="M176.56,125.51c7.66-9.71,14.1-20.3,17.39-32.32,3.69-13.54,3.69-28,1.8-41.85a142.3,142.3,0,0,0-5.48-23.93,2.57,2.57,0,0,0-2.41-1.84A100.35,100.35,0,0,0,117.43,56.5L121,60l2.15-2.29c2.2-2.35-1.33-5.89-3.54-3.54l-2.15,2.29c-2.2,2.35,1.31,5.88,3.54,3.54a95.91,95.91,0,0,1,50.55-27.72,91.47,91.47,0,0,1,16.34-1.75l-2.41-1.83A129.67,129.67,0,0,1,192,70.36c-.21,12.07-2.45,24-7.94,34.78A101.49,101.49,0,0,1,173,122a2.58,2.58,0,0,0,0,3.53,2.52,2.52,0,0,0,3.54,0Z"/><path class="cls-2" d="M22.05,123.75C11.21,110,5,97.16,3.18,79.78s.68-35.07,6-51.71a97.92,97.92,0,0,1,68.66,30.2L75.71,56"/><path class="cls-3" d="M23.82,122c-7.19-9.11-13.06-19.2-16-30.49C4.47,78.78,4.41,65.15,6.2,52.2a139.78,139.78,0,0,1,5.42-23.46L9.2,30.57A95.93,95.93,0,0,1,63.76,49.14,92.55,92.55,0,0,1,76.1,60c2.22,2.34,5.73-1.19,3.53-3.54l-2.15-2.29c-2.2-2.35-5.73,1.19-3.53,3.54L76.1,60l3.53-3.54a100.52,100.52,0,0,0-52.95-29A99.67,99.67,0,0,0,9.2,25.57a2.57,2.57,0,0,0-2.41,1.84c-8.21,25.75-10.55,55.82,2,80.6a105.14,105.14,0,0,0,11.52,17.5,2.5,2.5,0,0,0,3.53,0,2.55,2.55,0,0,0,0-3.53Z"/><path class="cls-2" d="M119.35,58.26c-8.22-2.09-16.67-4.19-25.07-3.08-5.49.73-10.7,2.81-15.73,5.11"/><path class="cls-3" d="M120,55.84c-7.16-1.81-14.49-3.64-21.93-3.45s-14.17,2.72-20.79,5.74a2.52,2.52,0,0,0-.9,3.42,2.57,2.57,0,0,0,3.42.9c6-2.72,12.14-5,18.75-5.07,6.85-.1,13.53,1.61,20.12,3.29,3.12.79,4.45-4,1.33-4.83Z"/><path class="cls-2" d="M23.5,124.68v1.14a49.92,49.92,0,0,0-12,26.61"/><path class="cls-3" d="M21,124.68v1.14l.73-1.77A53.3,53.3,0,0,0,9,152.43a2.51,2.51,0,0,0,2.5,2.5,2.57,2.57,0,0,0,2.5-2.5,46.82,46.82,0,0,1,4.28-14.26,49.38,49.38,0,0,1,3.77-6.49c.71-1,1.45-2,2.25-3a13.78,13.78,0,0,0,1.34-1.61,4.67,4.67,0,0,0,.34-2.4c0-3.21-5-3.22-5,0Z"/><path class="cls-2" d="M11.52,152.43C33,178.59,57.25,192,87.33,207.51"/><path class="cls-3" d="M9.75,154.2a164.14,164.14,0,0,0,26.91,25.91A242,242,0,0,0,67,199.53c6.31,3.49,12.7,6.83,19.11,10.14,2.85,1.47,5.38-2.84,2.52-4.32-21.4-11-42.86-22.55-60.63-39.07a160.42,160.42,0,0,1-14.67-15.62,2.53,2.53,0,0,0-3.54,0,2.56,2.56,0,0,0,0,3.54Z"/><path class="cls-2" d="M175.6,124.68v1.14a49.92,49.92,0,0,1,12,26.61"/><path class="cls-3" d="M173.1,124.68a5.29,5.29,0,0,0,.22,2.1,7,7,0,0,0,1.33,1.75c.8,1,1.55,2,2.26,3a49.71,49.71,0,0,1,3.89,6.66,46.74,46.74,0,0,1,4.28,14.26,2.58,2.58,0,0,0,2.5,2.5,2.51,2.51,0,0,0,2.5-2.5,53.3,53.3,0,0,0-12.71-28.38l.73,1.77v-1.14c0-3.22-5-3.22-5,0Z"/><path class="cls-2" d="M187.58,152.43c-21.49,26.16-45.73,39.54-75.81,55.08"/><path class="cls-3" d="M185.81,150.66A159.58,159.58,0,0,1,159.62,176a241.8,241.8,0,0,1-30,19.18c-6.31,3.5-12.7,6.83-19.11,10.14-2.86,1.48-.33,5.79,2.52,4.32,21.8-11.26,43.55-23,61.65-39.85a162.9,162.9,0,0,0,14.67-15.62,2.57,2.57,0,0,0,0-3.54,2.53,2.53,0,0,0-3.54,0Z"/><path class="cls-2" d="M110,208.15a38.76,38.76,0,0,1-26.86-2.76"/><path class="cls-3" d="M109.31,205.74a36.43,36.43,0,0,1-24.94-2.5,2.56,2.56,0,0,0-3.42.89,2.52,2.52,0,0,0,.9,3.42,41.79,41.79,0,0,0,28.79,3c3.11-.79,1.79-5.62-1.33-4.82Z"/><rect class="cls-4" x="35.23" y="104.92" width="52.1" height="33.63" rx="8.47"/><rect class="cls-4" x="111.77" y="104.92" width="52.1" height="33.63" rx="7.61"/><rect class="cls-5" x="87.33" y="118.57" width="24.44" height="3.17"/><path class="cls-6" d="M102.05,158.1l-.91.78a73.24,73.24,0,0,1,8.42-9.27l-.93-1.34a39.17,39.17,0,0,0-17.76.37H92.6l-.76.95a54.06,54.06,0,0,1,7.24,9.53"/><path class="cls-3" d="M100.28,156.33l-.91.79,3.92,3a72.68,72.68,0,0,1,8-8.78,2.52,2.52,0,0,0,.39-3c-.71-1-1.32-2.17-2.6-2.52a32.07,32.07,0,0,0-6.41-.84,41.86,41.86,0,0,0-12.51,1.25c-2.75.69-2.14,4.9.67,4.91H92.6l-1.77-4.27-.75,1a2.56,2.56,0,0,0,0,3.53,52.24,52.24,0,0,1,6.84,9c1.65,2.76,6,.25,4.32-2.52a57.71,57.71,0,0,0-7.63-10v3.53l.75-1a2.55,2.55,0,0,0,.52-2.73,2.52,2.52,0,0,0-2.28-1.53H90.87l.66,4.91a36.8,36.8,0,0,1,16.44-.37l-1.5-1.15.93,1.34.4-3A78.63,78.63,0,0,0,99,157.62a2.48,2.48,0,0,0,.64,3.23,2.54,2.54,0,0,0,3.28-.2l.92-.78a2.53,2.53,0,0,0,0-3.54,2.55,2.55,0,0,0-3.54,0Z"/><path class="cls-3" d="M117,183.62,108.21,178l-4.63-3a6.11,6.11,0,0,0-6.32,0l-4.42,2.82-9,5.77c-2.71,1.73-.2,6.06,2.52,4.32l14.3-9.13-1.26.34h2.12l-1.26-.34,14.3,9.13c2.72,1.74,5.23-2.59,2.52-4.32Z"/><path class="cls-7" d="M171.81,109.07c7.75-9.79,12.19-19,13.48-31.4A90.78,90.78,0,0,0,181,40.75a69.93,69.93,0,0,0-49,21.56l1.53-1.63"/><path class="cls-3" d="M173.58,110.83c5.53-7,10.13-14.66,12.46-23.35,2.61-9.74,2.65-20.12,1.3-30.06a102.8,102.8,0,0,0-3.94-17.33A2.57,2.57,0,0,0,181,38.25a72.25,72.25,0,0,0-50.8,22.3l3.54,3.53,1.53-1.63c2.2-2.35-1.33-5.89-3.53-3.54l-1.54,1.64c-2.2,2.34,1.31,5.87,3.54,3.53a67.9,67.9,0,0,1,35.68-19.59A65.22,65.22,0,0,1,181,43.25l-2.41-1.84c5.46,17.18,7.43,37.47-.9,54.08A68.7,68.7,0,0,1,170,107.3a2.58,2.58,0,0,0,0,3.53,2.52,2.52,0,0,0,3.54,0Z"/><path class="cls-8" d="M151.07,36.48a105,105,0,0,0-24,12.34,2,2,0,0,0-1,1.2c-.08.53.58,1.1,1,.75l1.18-.89c.25.56.56-.26,0,0-8.34-7.11-19.78-10.09-30.71-9.19S79.89,43.64,71,50L46.25,36.21,103.37,2.5l50.1,32.6"/><path class="cls-3" d="M150.4,34.07a109.75,109.75,0,0,0-19.1,9q-2.22,1.34-4.37,2.78c-1.43,1-3.08,1.91-3.31,3.79a3.3,3.3,0,0,0,3.21,3.69A4.56,4.56,0,0,0,129.5,52l-3.42-.9c1.2,1.72,3.81,2,4.74-.18a2.64,2.64,0,0,0-3.25-3.49l2.43.64a43.73,43.73,0,0,0-23.94-9.83,55.82,55.82,0,0,0-12.85.36,50.94,50.94,0,0,0-11.37,2.59,53.21,53.21,0,0,0-12.15,6.61h2.52L50.58,35.77l-3.07-1.72v4.32L66.85,27,97.56,8.83l7.07-4.17h-2.52l16.91,11,27,17.55,6.21,4c2.71,1.76,5.22-2.56,2.53-4.31l-16.91-11-27-17.55-6.21-4a2.5,2.5,0,0,0-2.52,0L82.76,11.76,52.05,29.88,45,34.05a2.53,2.53,0,0,0,0,4.32L66.61,50.44l3.08,1.72a2.47,2.47,0,0,0,2.52,0A50.49,50.49,0,0,1,82,46.5a44.93,44.93,0,0,1,10.5-2.77c8.08-1.2,16.23-.87,23.92,2.05a35.92,35.92,0,0,1,6.11,3,32.17,32.17,0,0,1,2.83,1.94c1.2.93,2.07,1.88,3.72,1.47L127.18,52l.1.06L126,49.89V50l.73-1.76-.07.07,2.43-.64H129l1.5,1.15-.13-.18c-.7-1-2.27-1.77-3.42-.9a8.11,8.11,0,0,1-1.4,1l1.26-.34-.23,0,1.26.34.39.33.34,1.26c-.38.64-.46.87-.26.7l.75-.51c.49-.34,1-.67,1.5-1q1.32-.86,2.67-1.68c2-1.22,4-2.36,6.08-3.44a102.08,102.08,0,0,1,12.4-5.46,2.56,2.56,0,0,0,1.75-3.07,2.53,2.53,0,0,0-3.08-1.75Z"/><path class="cls-7" d="M25.13,109.39c3.06-9.9,6.45-19.88,12.49-28.29S52.77,65.92,63.09,65"/><path class="cls-7" d="M25.42,110.07c-7.75-9.79-12.19-19-13.48-31.4a90.61,90.61,0,0,1,4.3-36.92,70,70,0,0,1,49,21.56l-1.54-1.63"/><path class="cls-3" d="M27.18,108.3C22.11,101.87,18,94.74,15.91,86.77c-2.35-9-2.39-18.75-1.08-27.95a102.56,102.56,0,0,1,3.82-16.41l-2.41,1.84a68,68,0,0,1,38.52,13.1,66.12,66.12,0,0,1,8.74,7.73c2.23,2.34,5.73-1.19,3.53-3.53L65.5,59.91c-2.21-2.35-5.74,1.19-3.54,3.54l1.54,1.63L67,61.55a72.25,72.25,0,0,0-50.79-22.3,2.56,2.56,0,0,0-2.41,1.84C7.93,59.61,6.28,81.17,15.23,99a75.51,75.51,0,0,0,8.42,12.81,2.5,2.5,0,0,0,3.53,0,2.55,2.55,0,0,0,0-3.53Z"/></g></g></svg>